<?xml version="1.0" encoding="utf-8" ?><svg xmlns="http://www.w3.org/2000/svg" xmlns:xlink="http://www.w3.org/1999/xlink" width="520" height="520" viewBox="252 255 520 520"><path fill="#3E55F7" d="M503.315 379.921C508.208 380.487 543.19 400.599 549.468 404.314L549.354 480.548C549.342 495.08 549.742 512.405 549.095 526.675C557.996 531.528 566.52 535.939 574.479 542.294C596.523 559.894 607.901 580.528 611.373 608.143C602.543 607.899 593.709 607.794 584.875 607.828C580.599 607.986 581.089 607.192 580.425 603.29C575.776 575.987 550.493 553.89 523.444 550.351C522.847 507.799 523.234 464.148 522.995 421.448C508.376 411.632 491.016 403.774 475.884 394.786C484.789 389.334 494.015 384.649 503.315 379.921Z"/><path fill="#3E55F7" d="M688.37 299.91C692.26 300.188 714.096 312.787 718.235 315.493C678.538 338.687 635.406 360.952 594.913 383.294C594.763 414.477 594.798 445.66 595.017 476.843C587.564 473.536 577.071 469.119 569.911 464.839C568.879 464.223 569.057 461.978 568.973 460.625L569.039 413.155C569.047 405.104 569.456 395.219 568.356 387.396C567.811 383.519 555.17 377.773 551.429 375.791C544.675 372.213 538.201 368.881 531.639 364.672C538.971 359.796 551.525 353.55 559.469 349.743L580.259 360.153C593.963 353.077 608.028 344.853 621.6 337.36C644.064 325.25 666.324 312.765 688.37 299.91Z"/><path fill="#FC9F3A" d="M335.142 300.414C339.036 301.666 356.854 312.269 361.611 314.909C388.982 330.103 415.702 345.173 443.457 359.715C448.832 356.792 454.33 354.099 459.933 351.641C468.596 355.472 481.125 362.337 489.318 367.096C485.622 369.317 478.651 372.559 474.542 374.652C468.035 377.944 461.675 381.517 455.48 385.364C455.287 411.454 455.529 437.545 456.205 463.627L456.016 464.355C454.375 465.818 433.084 475.017 429.341 476.678C428.874 455.983 429.898 434.221 429.506 413.418C429.339 404.546 429.971 392.81 428.96 384.194C420.566 377.671 397.581 366.005 387.247 360.273L306.596 315.442C315.552 310.395 325.993 305.115 335.142 300.414Z"/><path fill="#FC9F3A" d="M475.357 417.14C484.415 421.43 493.231 426.213 501.766 431.466C501.479 447.885 501.886 464.983 501.93 481.477L501.955 549.849C500.615 550.119 499.277 550.404 497.943 550.702C475.232 555.797 457.612 569.075 447.794 590.571C445.994 594.513 443.118 605.718 441.811 607.78L440.125 607.913C431.056 607.579 421.815 607.312 412.758 607.971C415.846 579.006 430.569 554.664 454.809 538.079C461.209 533.7 468.843 530.651 475.545 526.357C475.103 490.154 475.502 453.411 475.357 417.14Z"/><path fill="#40D2D4" d="M432.006 703.826C435.253 705.522 443.297 712.075 446.822 714.467C460.771 723.932 477.119 730.384 493.769 732.823C520.682 736.597 548.088 731.326 571.68 717.836C579.003 713.674 585.346 708.97 592.07 703.976C596.648 708.172 608.088 721.848 611.903 726.81C607.198 730.945 602.392 734.261 597.229 737.74C576.49 751.302 552.826 759.744 528.185 762.372C495.979 765.778 460.477 758.472 432.976 741.483C425.103 736.619 419.55 732.165 412.44 726.406C417.616 719.228 425.885 710.538 432.006 703.826Z"/><path fill="#FC9F3A" d="M395.689 524.751C400.567 528.679 412.573 542.555 417.086 547.649C383.478 591.858 384.956 645.068 418.132 689.041C413.813 694.476 407.486 700.981 402.646 706.184C401.127 707.789 398.923 710.548 397.435 712.299C380.388 693.321 368.059 666.556 363.863 641.577C358.728 610.189 364.07 577.984 379.064 549.934C384.006 540.849 389.714 533.121 395.689 524.751Z"/><path fill="#FC9F3A" d="M627.356 524.776C629.549 525.698 633.533 531.71 635.055 533.88C648 552.34 656.952 573.063 660.327 595.455C665.095 627.682 659.036 660.581 643.098 688.995C638.601 696.882 632.932 704.259 627.519 711.562L622.407 706.679C616.839 701.082 611.361 695.397 605.976 689.624C618.027 672.9 627.024 656.394 629.91 635.75C634.693 601.526 627.568 575.025 607.401 547.677C613.697 540.178 620.867 532.376 627.356 524.776Z"/><path fill="#3E55F7" d="M330.405 359.429C347.933 368.249 366.238 378.512 383.462 387.965C390.903 392.048 401.419 397.859 408.226 402.302C408.763 430.766 407.905 460.28 408.284 489.057C404.128 492.795 399.44 496.251 395.183 500.19C391.881 503.245 385.8 509.423 382.415 511.77C381.947 504.095 382.161 494.934 382.17 487.13L382.292 447.286C382.333 439.286 382.7 430.068 381.841 422.158C381.568 419.909 380.748 418.088 378.812 416.766C355.364 400.741 326.731 390.541 303.343 374.508C308.225 370.839 324.36 362.659 330.405 359.429Z"/><path fill="#3E55F7" d="M691.93 359.433C694.659 359.539 717.628 372.36 721.389 374.512C713.69 379.629 704.179 384.552 695.991 388.928L664.326 405.735C656.809 409.648 649.118 413.367 642.004 417.963C641.681 423.007 641.479 428.228 641.535 433.283C641.81 458.113 640.919 483.329 641.769 508.123C641.839 509.776 642.108 509.784 641.429 511.039C638.781 510.264 619.308 492.004 616.057 488.78C615.715 478.9 615.965 467.304 615.951 457.332L615.993 402.399C621.323 398.113 636.94 390.015 643.628 386.348C659.838 377.575 675.94 368.602 691.93 359.433Z"/><path fill="#FC9F3A" d="M398.599 265.886C404.237 266.23 472.115 305.547 482.405 311.26L536.9 341.076C527.251 345.514 518.633 351.285 508.171 355.802C506.224 355.81 382.213 286.79 370.28 280.018C380.758 275.494 388.486 271.388 398.599 265.886Z"/><path fill="#3E55F7" d="M413.114 627.152C423.003 627.151 432.893 627.223 442.781 627.368C448.247 660.953 469.79 677.715 501.541 685.013L501.497 714.764C480.79 711.258 465.361 706.337 448.706 692.835C428.566 676.556 415.755 652.913 413.114 627.152Z"/><path fill="#40D2D4" d="M581.132 627.385L611.792 627.602C610.451 636.295 608.155 644.813 604.944 653.001C594.129 680.553 575.737 696.393 549.012 708C540.647 711.416 532.748 713.078 523.967 714.689C523.948 704.711 524.167 694.892 524.041 684.868C555.218 678.373 575.299 658.74 581.132 627.385Z"/><path fill="#FC9F3A" d="M623.945 265.439C627.677 265.983 649.191 277.854 653.24 280.48C622.454 297.706 591.464 314.207 560.735 331.639C557.159 331.741 535.934 319.238 530.953 316.653C561.782 300.053 593.196 281.335 623.945 265.439Z"/><path fill="#40D2D4" d="M454.025 485.473L455.023 485.53C455.865 487.872 455.918 511.643 455.974 515.773C446.06 521.607 440.077 525.402 430.834 532.204C428.278 529.599 425.365 526.141 422.9 523.37C419.166 519.172 415.394 514.628 411.735 510.339C422.636 500.008 440.092 491.122 454.025 485.473Z"/><path fill="#40D2D4" d="M569.009 485.015C584.621 491.607 599.343 500.133 612.832 510.391C609.838 514.263 606.441 517.919 603.165 521.566C599.917 525.069 596.695 528.951 593.573 532.592C586.584 526.518 577.273 520.717 569.381 515.972C569.066 505.656 568.942 495.335 569.009 485.015Z"/></svg>